<mxfile host="app.diagrams.net" modified="2024-05-16T08:08:05.228Z" agent="Mozilla/5.0 (Windows NT 10.0; Win64; x64) AppleWebKit/537.36 (KHTML, like Gecko) Chrome/124.0.0.0 Safari/537.36" etag="G9kJeqFrbnOO44wa78-x" version="24.4.2" type="github">
  <diagram name="Page-1" id="H99ZJvF2B_AQA_HEOBCG">
    <mxGraphModel dx="1293" dy="573" grid="1" gridSize="10" guides="1" tooltips="1" connect="1" arrows="1" fold="1" page="1" pageScale="1" pageWidth="850" pageHeight="1100" math="0" shadow="0">
      <root>
        <mxCell id="0" />
        <mxCell id="1" parent="0" />
        <mxCell id="7TyWOzqOky9eLhuyGX8Z-2" value="Public subnet" style="points=[[0,0],[0.25,0],[0.5,0],[0.75,0],[1,0],[1,0.25],[1,0.5],[1,0.75],[1,1],[0.75,1],[0.5,1],[0.25,1],[0,1],[0,0.75],[0,0.5],[0,0.25]];outlineConnect=0;gradientColor=none;html=1;whiteSpace=wrap;fontSize=12;fontStyle=0;container=1;pointerEvents=0;collapsible=0;recursiveResize=0;shape=mxgraph.aws4.group;grIcon=mxgraph.aws4.group_security_group;grStroke=0;strokeColor=#7AA116;fillColor=#F2F6E8;verticalAlign=top;align=left;spacingLeft=30;fontColor=#248814;dashed=0;" parent="1" vertex="1">
          <mxGeometry x="20" y="280" width="710" height="210" as="geometry" />
        </mxCell>
        <mxCell id="7TyWOzqOky9eLhuyGX8Z-1" value="VPC" style="points=[[0,0],[0.25,0],[0.5,0],[0.75,0],[1,0],[1,0.25],[1,0.5],[1,0.75],[1,1],[0.75,1],[0.5,1],[0.25,1],[0,1],[0,0.75],[0,0.5],[0,0.25]];outlineConnect=0;gradientColor=none;html=1;whiteSpace=wrap;fontSize=12;fontStyle=0;container=1;pointerEvents=0;collapsible=0;recursiveResize=0;shape=mxgraph.aws4.group;grIcon=mxgraph.aws4.group_vpc2;strokeColor=#8C4FFF;fillColor=none;verticalAlign=top;align=left;spacingLeft=30;fontColor=#AAB7B8;dashed=0;" parent="1" vertex="1">
          <mxGeometry x="20" y="250" width="710" height="380" as="geometry" />
        </mxCell>
        <mxCell id="7TyWOzqOky9eLhuyGX8Z-3" value="Private subnet" style="points=[[0,0],[0.25,0],[0.5,0],[0.75,0],[1,0],[1,0.25],[1,0.5],[1,0.75],[1,1],[0.75,1],[0.5,1],[0.25,1],[0,1],[0,0.75],[0,0.5],[0,0.25]];outlineConnect=0;gradientColor=none;html=1;whiteSpace=wrap;fontSize=12;fontStyle=0;container=1;pointerEvents=0;collapsible=0;recursiveResize=0;shape=mxgraph.aws4.group;grIcon=mxgraph.aws4.group_security_group;grStroke=0;strokeColor=#00A4A6;fillColor=#E6F6F7;verticalAlign=top;align=left;spacingLeft=30;fontColor=#147EBA;dashed=0;" parent="7TyWOzqOky9eLhuyGX8Z-1" vertex="1">
          <mxGeometry y="240" width="710" height="140" as="geometry" />
        </mxCell>
        <mxCell id="7TyWOzqOky9eLhuyGX8Z-5" value="" style="sketch=0;points=[[0,0,0],[0.25,0,0],[0.5,0,0],[0.75,0,0],[1,0,0],[0,1,0],[0.25,1,0],[0.5,1,0],[0.75,1,0],[1,1,0],[0,0.25,0],[0,0.5,0],[0,0.75,0],[1,0.25,0],[1,0.5,0],[1,0.75,0]];outlineConnect=0;fontColor=#232F3E;fillColor=#ED7100;strokeColor=#ffffff;dashed=0;verticalLabelPosition=bottom;verticalAlign=top;align=center;html=1;fontSize=12;fontStyle=0;aspect=fixed;shape=mxgraph.aws4.resourceIcon;resIcon=mxgraph.aws4.ec2;" parent="7TyWOzqOky9eLhuyGX8Z-3" vertex="1">
          <mxGeometry x="230" y="21" width="78" height="78" as="geometry" />
        </mxCell>
        <mxCell id="7TyWOzqOky9eLhuyGX8Z-8" value="" style="sketch=0;points=[[0,0,0],[0.25,0,0],[0.5,0,0],[0.75,0,0],[1,0,0],[0,1,0],[0.25,1,0],[0.5,1,0],[0.75,1,0],[1,1,0],[0,0.25,0],[0,0.5,0],[0,0.75,0],[1,0.25,0],[1,0.5,0],[1,0.75,0]];outlineConnect=0;fontColor=#232F3E;fillColor=#ED7100;strokeColor=#ffffff;dashed=0;verticalLabelPosition=bottom;verticalAlign=top;align=center;html=1;fontSize=12;fontStyle=0;aspect=fixed;shape=mxgraph.aws4.resourceIcon;resIcon=mxgraph.aws4.ec2;" parent="7TyWOzqOky9eLhuyGX8Z-3" vertex="1">
          <mxGeometry x="450" y="21" width="78" height="78" as="geometry" />
        </mxCell>
        <mxCell id="7TyWOzqOky9eLhuyGX8Z-34" value="Zabbix" style="text;html=1;align=center;verticalAlign=middle;resizable=0;points=[];autosize=1;strokeColor=none;fillColor=none;" parent="7TyWOzqOky9eLhuyGX8Z-3" vertex="1">
          <mxGeometry x="528" y="45" width="60" height="30" as="geometry" />
        </mxCell>
        <mxCell id="7TyWOzqOky9eLhuyGX8Z-35" value="Odoo" style="text;html=1;align=center;verticalAlign=middle;resizable=0;points=[];autosize=1;strokeColor=none;fillColor=none;" parent="7TyWOzqOky9eLhuyGX8Z-3" vertex="1">
          <mxGeometry x="308" y="45" width="50" height="30" as="geometry" />
        </mxCell>
        <mxCell id="7TyWOzqOky9eLhuyGX8Z-10" value="" style="sketch=0;outlineConnect=0;fontColor=#232F3E;gradientColor=none;fillColor=#8C4FFF;strokeColor=none;dashed=0;verticalLabelPosition=bottom;verticalAlign=top;align=center;html=1;fontSize=12;fontStyle=0;aspect=fixed;pointerEvents=1;shape=mxgraph.aws4.nat_gateway;rotation=-90;" parent="7TyWOzqOky9eLhuyGX8Z-3" vertex="1">
          <mxGeometry x="140" y="-33" width="78" height="78" as="geometry" />
        </mxCell>
        <mxCell id="1A1_ldFinYjOSo-7jyjG-2" value="" style="rounded=1;arcSize=10;dashed=1;strokeColor=#ff0000;fillColor=none;gradientColor=none;dashPattern=8 4;strokeWidth=2;" vertex="1" parent="7TyWOzqOky9eLhuyGX8Z-3">
          <mxGeometry x="430" y="3" width="160" height="114.25" as="geometry" />
        </mxCell>
        <mxCell id="1A1_ldFinYjOSo-7jyjG-4" value="Zabbix_SG" style="text;html=1;align=center;verticalAlign=middle;resizable=0;points=[];autosize=1;strokeColor=none;fillColor=none;" vertex="1" parent="7TyWOzqOky9eLhuyGX8Z-3">
          <mxGeometry x="595" y="45.129999999999995" width="80" height="30" as="geometry" />
        </mxCell>
        <mxCell id="1A1_ldFinYjOSo-7jyjG-5" value="" style="rounded=1;arcSize=10;dashed=1;strokeColor=#ff0000;fillColor=none;gradientColor=none;dashPattern=8 4;strokeWidth=2;" vertex="1" parent="7TyWOzqOky9eLhuyGX8Z-3">
          <mxGeometry x="218" y="3.009999999999991" width="160" height="114.25" as="geometry" />
        </mxCell>
        <mxCell id="1A1_ldFinYjOSo-7jyjG-6" value="Odoo_SG" style="text;html=1;align=center;verticalAlign=middle;resizable=0;points=[];autosize=1;strokeColor=none;fillColor=none;" vertex="1" parent="7TyWOzqOky9eLhuyGX8Z-3">
          <mxGeometry x="139" y="87.25999999999999" width="80" height="30" as="geometry" />
        </mxCell>
        <mxCell id="7TyWOzqOky9eLhuyGX8Z-24" style="edgeStyle=orthogonalEdgeStyle;rounded=0;orthogonalLoop=1;jettySize=auto;html=1;" parent="7TyWOzqOky9eLhuyGX8Z-1" source="7TyWOzqOky9eLhuyGX8Z-4" target="7TyWOzqOky9eLhuyGX8Z-5" edge="1">
          <mxGeometry relative="1" as="geometry" />
        </mxCell>
        <mxCell id="7TyWOzqOky9eLhuyGX8Z-4" value="" style="sketch=0;points=[[0,0,0],[0.25,0,0],[0.5,0,0],[0.75,0,0],[1,0,0],[0,1,0],[0.25,1,0],[0.5,1,0],[0.75,1,0],[1,1,0],[0,0.25,0],[0,0.5,0],[0,0.75,0],[1,0.25,0],[1,0.5,0],[1,0.75,0]];outlineConnect=0;fontColor=#232F3E;fillColor=#ED7100;strokeColor=#ffffff;dashed=0;verticalLabelPosition=bottom;verticalAlign=top;align=center;html=1;fontSize=12;fontStyle=0;aspect=fixed;shape=mxgraph.aws4.resourceIcon;resIcon=mxgraph.aws4.ec2;" parent="7TyWOzqOky9eLhuyGX8Z-1" vertex="1">
          <mxGeometry x="311.5" y="90" width="78" height="78" as="geometry" />
        </mxCell>
        <mxCell id="7TyWOzqOky9eLhuyGX8Z-23" style="edgeStyle=orthogonalEdgeStyle;rounded=0;orthogonalLoop=1;jettySize=auto;html=1;exitX=1;exitY=0.5;exitDx=0;exitDy=0;exitPerimeter=0;entryX=0.5;entryY=0;entryDx=0;entryDy=0;entryPerimeter=0;" parent="7TyWOzqOky9eLhuyGX8Z-1" source="7TyWOzqOky9eLhuyGX8Z-4" target="7TyWOzqOky9eLhuyGX8Z-8" edge="1">
          <mxGeometry relative="1" as="geometry" />
        </mxCell>
        <mxCell id="7TyWOzqOky9eLhuyGX8Z-32" value="NAT Gateway" style="text;html=1;align=center;verticalAlign=middle;resizable=0;points=[];autosize=1;strokeColor=none;fillColor=none;" parent="7TyWOzqOky9eLhuyGX8Z-1" vertex="1">
          <mxGeometry x="30" y="70" width="100" height="30" as="geometry" />
        </mxCell>
        <mxCell id="7TyWOzqOky9eLhuyGX8Z-33" value="&lt;div&gt;Bastion Host&lt;/div&gt;" style="text;html=1;align=center;verticalAlign=middle;resizable=0;points=[];autosize=1;strokeColor=none;fillColor=none;" parent="7TyWOzqOky9eLhuyGX8Z-1" vertex="1">
          <mxGeometry x="305.5" y="168" width="90" height="30" as="geometry" />
        </mxCell>
        <mxCell id="1A1_ldFinYjOSo-7jyjG-1" value="" style="rounded=1;arcSize=10;dashed=1;strokeColor=#ff0000;fillColor=none;gradientColor=none;dashPattern=8 4;strokeWidth=2;" vertex="1" parent="7TyWOzqOky9eLhuyGX8Z-1">
          <mxGeometry x="230" y="71.88" width="280" height="114.25" as="geometry" />
        </mxCell>
        <mxCell id="1A1_ldFinYjOSo-7jyjG-3" value="BationHost_SG" style="text;html=1;align=center;verticalAlign=middle;resizable=0;points=[];autosize=1;strokeColor=none;fillColor=none;" vertex="1" parent="7TyWOzqOky9eLhuyGX8Z-1">
          <mxGeometry x="510" y="70" width="110" height="30" as="geometry" />
        </mxCell>
        <mxCell id="7TyWOzqOky9eLhuyGX8Z-11" value="" style="sketch=0;outlineConnect=0;fontColor=#232F3E;gradientColor=none;fillColor=#E7157B;strokeColor=none;dashed=0;verticalLabelPosition=bottom;verticalAlign=top;align=center;html=1;fontSize=12;fontStyle=0;aspect=fixed;pointerEvents=1;shape=mxgraph.aws4.cloudwatch_logs;" parent="1" vertex="1">
          <mxGeometry x="810" y="170" width="78" height="58" as="geometry" />
        </mxCell>
        <mxCell id="7TyWOzqOky9eLhuyGX8Z-13" value="" style="shape=image;html=1;verticalAlign=top;verticalLabelPosition=bottom;labelBackgroundColor=#ffffff;imageAspect=0;aspect=fixed;image=https://cdn1.iconfinder.com/data/icons/unicons-line-vol-6/24/telegram-128.png" parent="1" vertex="1">
          <mxGeometry x="161" y="117" width="76" height="76" as="geometry" />
        </mxCell>
        <mxCell id="7TyWOzqOky9eLhuyGX8Z-27" value="" style="endArrow=classic;html=1;rounded=0;" parent="1" target="7TyWOzqOky9eLhuyGX8Z-11" edge="1">
          <mxGeometry width="50" height="50" relative="1" as="geometry">
            <mxPoint x="730" y="250" as="sourcePoint" />
            <mxPoint x="780" y="200" as="targetPoint" />
          </mxGeometry>
        </mxCell>
        <mxCell id="7TyWOzqOky9eLhuyGX8Z-28" style="edgeStyle=orthogonalEdgeStyle;rounded=0;orthogonalLoop=1;jettySize=auto;html=1;" parent="1" source="7TyWOzqOky9eLhuyGX8Z-10" target="7TyWOzqOky9eLhuyGX8Z-13" edge="1">
          <mxGeometry relative="1" as="geometry" />
        </mxCell>
        <mxCell id="7TyWOzqOky9eLhuyGX8Z-29" value="Monitorization Alerts" style="text;html=1;align=center;verticalAlign=middle;resizable=0;points=[];autosize=1;strokeColor=none;fillColor=none;" parent="1" vertex="1">
          <mxGeometry x="134" y="100" width="130" height="30" as="geometry" />
        </mxCell>
        <mxCell id="7TyWOzqOky9eLhuyGX8Z-30" value="CloudWatch LOgs" style="text;html=1;align=center;verticalAlign=middle;resizable=0;points=[];autosize=1;strokeColor=none;fillColor=none;" parent="1" vertex="1">
          <mxGeometry x="789" y="140" width="120" height="30" as="geometry" />
        </mxCell>
        <mxCell id="7TyWOzqOky9eLhuyGX8Z-31" value="Internet Gateway" style="text;html=1;align=center;verticalAlign=middle;resizable=0;points=[];autosize=1;strokeColor=none;fillColor=none;" parent="1" vertex="1">
          <mxGeometry x="315" y="180" width="110" height="30" as="geometry" />
        </mxCell>
        <mxCell id="7TyWOzqOky9eLhuyGX8Z-9" value="" style="outlineConnect=0;dashed=0;verticalLabelPosition=bottom;verticalAlign=top;align=center;html=1;shape=mxgraph.aws3.internet_gateway;fillColor=#F58534;gradientColor=none;" parent="1" vertex="1">
          <mxGeometry x="336" y="200" width="69" height="72" as="geometry" />
        </mxCell>
        <mxCell id="7TyWOzqOky9eLhuyGX8Z-18" value="" style="endArrow=classic;startArrow=classic;html=1;rounded=0;" parent="1" source="7TyWOzqOky9eLhuyGX8Z-9" target="7TyWOzqOky9eLhuyGX8Z-4" edge="1">
          <mxGeometry width="50" height="50" relative="1" as="geometry">
            <mxPoint x="350.5" y="82" as="sourcePoint" />
            <mxPoint x="390.5" y="602.7106781186548" as="targetPoint" />
          </mxGeometry>
        </mxCell>
      </root>
    </mxGraphModel>
  </diagram>
</mxfile>
